<?xml version="1.0" encoding="UTF-8" standalone="no"?>
<!-- Created with Inkscape (http://www.inkscape.org/) -->

<svg
   xmlns:dc="http://purl.org/dc/elements/1.1/"
   xmlns:cc="http://creativecommons.org/ns#"
   xmlns:rdf="http://www.w3.org/1999/02/22-rdf-syntax-ns#"
   xmlns:svg="http://www.w3.org/2000/svg"
   xmlns="http://www.w3.org/2000/svg"
   xmlns:xlink="http://www.w3.org/1999/xlink"
   xmlns:sodipodi="http://sodipodi.sourceforge.net/DTD/sodipodi-0.dtd"
   xmlns:inkscape="http://www.inkscape.org/namespaces/inkscape"
   id="svg1"
   sodipodi:docname="salah.svg"
   viewBox="0 0 393.31 393.31"
   sodipodi:version="0.32"
   version="1.1"
   inkscape:version="0.92.5 (2060ec1f9f, 2020-04-08)">
  <defs
     id="defs3">
    <linearGradient
       id="linearGradient1697">
      <stop
         id="stop1698"
         style="stop-color:#69db0e"
         offset="0" />
      <stop
         id="stop1699"
         style="stop-color:#397607"
         offset="1" />
    </linearGradient>
    <linearGradient
       id="linearGradient1076"
       y2="466.28"
       xlink:href="#linearGradient1697"
       gradientUnits="userSpaceOnUse"
       x2="520.57"
       y1="506.29"
       x1="520.57"
       inkscape:collect="always" />
    <linearGradient
       id="linearGradient1077"
       y2="505.08"
       xlink:href="#linearGradient1697"
       gradientUnits="userSpaceOnUse"
       x2="522.94"
       y1="469.5"
       x1="522.94"
       inkscape:collect="always" />
    <linearGradient
       id="linearGradient1078"
       y2="463.47"
       gradientUnits="userSpaceOnUse"
       y1="183.48"
       gradientTransform="matrix(1.5539,0,0,0.64354,-1.0179,0)"
       x2="214.59"
       x1="213.83"
       inkscape:collect="always">
      <stop
         id="stop1703"
         style="stop-color:#ffffff;stop-opacity:.69072"
         offset="0" />
      <stop
         id="stop1704"
         style="stop-color:#ffffff;stop-opacity:0"
         offset="1" />
    </linearGradient>
  </defs>
  <sodipodi:namedview
     id="base"
     bordercolor="#666666"
     inkscape:pageshadow="2"
     inkscape:window-y="0"
     pagecolor="#ffffff"
     inkscape:window-maximized="1"
     inkscape:window-width="1366"
     inkscape:zoom="0.86831673"
     inkscape:window-x="0"
     showgrid="false"
     borderopacity="1.0"
     inkscape:current-layer="layer1"
     inkscape:cx="212.05942"
     inkscape:cy="208.36548"
     inkscape:window-height="703"
     inkscape:pageopacity="0.0" />
  <g
     id="layer1"
     inkscape:label="Layer 1"
     inkscape:groupmode="layer"
     transform="translate(-6.3522 -6.7714)">
    <g
       id="g1073"
       transform="matrix(0.9523787,0,0,0.9523787,-114.01081,-80.723428)">
      <circle
         id="path1070"
         style="fill:url(#linearGradient1076);stroke:url(#linearGradient1077);stroke-width:1.36450005;stroke-linecap:round;stroke-linejoin:round"
         transform="matrix(9.1612,0,0,9.1612,-4460.6,-4165)"
         cx="523.28259"
         cy="487.06226"
         r="20.783747" />
      <path
         id="path1713"
         inkscape:connector-curvature="0"
         sodipodi:nodetypes="cccccc"
         style="opacity:0.9;fill:url(#linearGradient1078);fill-rule:evenodd"
         d="m 471.57,246.89 c 44.37,-0.97 -12.4,-123.16 -135.68,-123.81 -134.56,-0.68 -162.09,110.96 -140.72,113 0,0 36.87,5.06 71.94,14.86 56.47,15.93 125.55,-13.07 152.77,-17.29 30.34,-4.69 47.37,15.4 51.69,13.24 z" />
    </g>
    <ellipse
       id="path2999"
       style="fill:#4d4d4d;stroke:#4d4d4d;stroke-width:0.66032457;fill-opacity:1;stroke-opacity:1"
       transform="matrix(-0.99948933,-0.03195439,-0.03195439,0.99948933,0,0)"
       cx="-222.61737"
       cy="83.616501"
       rx="46.863903"
       ry="46.863827" />
    <rect
       id="rect3001"
       style="fill:#ffffff;stroke:#4d4d4d;stroke-width:0.66031212;stroke-opacity:1"
       rx="52.018913"
       ry="52.018913"
       height="175.27092"
       width="104.03781"
       y="124.09861"
       x="-237.12209"
       transform="matrix(-0.99948933,-0.03195439,-0.03195439,0.99948933,0,0)" />
    <ellipse
       ry="70.443352"
       rx="26.706263"
       cy="134.56291"
       cx="297.00937"
       transform="matrix(0.21417372,0.97679559,0.97985789,0.19969607,0,0)"
       inkscape:transform-center-y="13.389455"
       inkscape:transform-center-x="-20.548699"
       style="fill:#ffffff;stroke:#4d4d4d;stroke-width:1.09972429;stroke-linecap:round;stroke-linejoin:round;stroke-dashoffset:100;stroke-opacity:1"
       id="path3862" />
    <ellipse
       id="path3864"
       style="fill:#4d4d4d;stroke:#4d4d4d;stroke-width:0.91181004;stroke-linecap:round;stroke-linejoin:round;stroke-dashoffset:100;stroke-opacity:1"
       inkscape:transform-center-x="-16.355377"
       inkscape:transform-center-y="-11.869509"
       transform="matrix(-0.52744928,-0.84958652,-0.99997059,0.00766876,0,0)"
       cx="-396.05453"
       cy="14.948252"
       rx="19.50585"
       ry="66.302422" />
    <ellipse
       id="path3781"
       style="fill:#ffffff;stroke:#4d4d4d;stroke-width:0.93288505;stroke-linecap:round;stroke-linejoin:round;stroke-dashoffset:100;stroke-opacity:1"
       inkscape:transform-center-x="21.173778"
       inkscape:transform-center-y="-4.9180717"
       transform="matrix(-0.73908439,0.67361285,0.4151716,0.90974312,0,0)"
       cx="-89.163063"
       cy="296.98672"
       rx="25.645857"
       ry="52.786716" />
    <ellipse
       id="path3783"
       style="fill:#4d4d4d;stroke:#4d4d4d;stroke-width:0.84353179;stroke-opacity:1"
       inkscape:transform-center-x="7.7478013"
       inkscape:transform-center-y="11.076814"
       transform="rotate(-138.43252)"
       cx="-320.08582"
       cy="-0.65651572"
       rx="19.682716"
       ry="62.062992" />
    <g
       style="fill:#ffffff;stroke:#ffffff;stroke-width:1.79999995"
       id="g174"
       transform="matrix(0.29614137,-0.36320849,0.36320849,0.29614137,-200.73479,84.631788)">
      <path
         style="fill:#ffffff;fill-opacity:1;stroke-width:1.80000567"
         d="m 585.58068,606.73076 c 7.22127,1.62845 21.33164,8.13266 29.94111,13.80143 10.96222,7.21791 21.51541,17.9503 28.83252,29.32212 4.73584,7.36015 6.09193,10.427 10.07367,22.78202 3.98174,12.35503 4.67159,15.63659 5.1246,24.377 0.69991,13.50439 -1.60065,28.37924 -6.2854,40.63981 -3.6793,9.62916 -11.33652,23.14856 -16.24803,28.68712 l -2.30455,2.59878 -26.26112,-81.48619 -26.26112,-81.48618 z"
         id="path190"
         inkscape:connector-curvature="0" />
      <path
         style="fill:#ffffff;fill-opacity:1;stroke-width:1.80000567"
         d="m 588.98503,607.9884 c 22.98345,6.72823 42.64543,21.92049 56.28489,43.48976 7.02194,11.10441 13.2925,30.53157 14.07218,43.59784 1.48189,24.83392 -5.92289,49.99307 -19.98345,67.89761 l -4.65588,5.92873 -26.24929,-81.44949 -26.2493,-81.44949 z"
         id="path188"
         inkscape:connector-curvature="0" />
      <path
         style="fill:#ffffff;fill-opacity:1;stroke-width:1.80000567"
         d="m 589.44969,608.14476 c 37.63421,11.36024 65.41684,45.15399 69.52309,84.56525 2.69259,25.84324 -4.81962,50.98953 -21.84468,73.12263 l -2.40641,3.1284 -26.26691,-81.50416 -26.26692,-81.50417 z"
         id="path186"
         inkscape:connector-curvature="0" />
      <path
         style="fill:#ffffff;fill-opacity:1;stroke-width:1.80000567"
         d="m 585.9659,607.0804 c 10.20915,3.06689 20.93846,7.95189 28.79029,13.10807 9.90482,6.50434 22.05738,18.60377 28.37146,28.24742 22.51328,34.38505 21.53668,79.21511 -2.45076,112.5013 -2.53524,3.51804 -4.99073,6.51928 -5.45663,6.66943 -0.48828,0.15737 -11.89982,-34.02276 -26.94104,-80.69448 l -26.09395,-80.96747 z"
         id="path184"
         inkscape:connector-curvature="0" />
      <path
         style="fill:#ffffff;fill-opacity:1;stroke-width:1.80000567"
         d="m 583.38087,606.75309 c 1.7065,-0.54997 15.64555,4.7206 23.61039,8.92744 46.88576,24.76394 65.78651,83.4115 42.18359,130.89233 -4.00961,8.06592 -12.24809,20.4838 -13.95459,21.03376 -0.48823,0.15735 -11.82737,-33.79797 -26.76678,-80.15377 -14.93941,-46.35579 -25.56085,-80.54241 -25.07261,-80.69976 z"
         id="path182"
         inkscape:connector-curvature="0" />
      <path
         style="fill:#ffffff;fill-opacity:1;stroke-width:1.80000567"
         d="m 583.12676,606.83498 c 1.56194,-0.50337 15.83092,4.86109 23.10468,8.68627 15.55623,8.18082 28.50345,20.05998 38.26007,35.10384 5.64052,8.69718 14.21415,35.27327 14.73667,45.67989 0.88638,17.65363 -2.45788,33.97382 -10.22558,49.90149 -3.91946,8.03685 -12.34933,20.93833 -14.03645,21.48205 -0.32614,0.1051 -12.25684,-36.00094 -26.51267,-80.23567 -14.25583,-44.23472 -25.65286,-80.51276 -25.32672,-80.61787 z"
         id="path180"
         inkscape:connector-curvature="0" />
      <path
         style="fill:#ffffff;fill-opacity:1;stroke-width:1.80000567"
         d="m 583.12676,606.83498 c 1.77637,-0.57248 16.22153,5.07149 24.59752,9.61067 22.68932,12.29596 38.36531,31.30475 46.41541,56.28359 8.05011,24.97884 6.42341,49.56388 -4.81653,72.79446 -4.14933,8.57581 -12.58064,21.59234 -14.35701,22.16482 -0.32614,0.1051 -12.25684,-36.00094 -26.51267,-80.23567 -14.25583,-44.23472 -25.65286,-80.51276 -25.32672,-80.61787 z"
         id="path178"
         inkscape:connector-curvature="0" />
      <path
         style="fill:#ffffff;fill-opacity:1;stroke-width:1.80000567"
         d="m 583.07614,606.8513 c 1.34153,-0.43235 11.87917,3.35297 19.68944,7.07281 11.63992,5.54381 19.6622,11.36652 28.79873,20.90262 12.26402,12.80036 15.80923,18.94447 21.98073,38.09415 6.09603,18.9155 6.85953,26.13119 4.54463,42.95084 -1.73634,12.61592 -3.47224,18.50941 -8.66034,29.4025 -3.5919,7.54164 -12.85125,21.89481 -14.45873,22.41286 -0.32858,0.1059 -12.26129,-35.9995 -26.51712,-80.23423 -14.25583,-44.23472 -25.67564,-80.50542 -25.37734,-80.60155 z"
         id="path176"
         inkscape:connector-curvature="0" />
    </g>
    <g
       style="stroke:#4d4d4d;stroke-width:1.79999995;fill:#ffffff;stroke-opacity:1"
       id="g192"
       transform="matrix(0.14375,-0.44604491,0.44604491,0.14375,30.242552,410.46181)">
      <path
         style="fill:#ffffff;fill-opacity:1;stroke-width:1.80000567;stroke:#4d4d4d;stroke-opacity:1"
         d="m 413.04119,245.06615 c 0.0982,-2.53626 2.46431,-7.16005 4.95254,-9.67812 3.25679,-3.29585 14.65568,-6.68957 23.8059,-7.08757 27.61176,-1.20102 69.44544,9.25112 112.18661,28.02982 7.17325,3.15163 13.0097,6.3259 12.96988,7.05394 -0.0971,1.77498 -31.65643,73.61232 -32.45172,73.86863 -0.34328,0.11063 -7.74184,-2.87372 -16.44123,-6.63189 -43.74463,-18.89786 -83.92725,-46.55732 -98.32236,-67.67958 -3.06169,-4.4925 -6.82863,-14.54305 -6.69962,-17.87523 z"
         id="path208"
         inkscape:connector-curvature="0" />
      <path
         style="fill:#ffffff;fill-opacity:1;stroke-width:1.80000567;stroke:#4d4d4d;stroke-opacity:1"
         d="m 413.88471,242.58571 c 1.88378,-6.62106 5.19037,-9.1324 15.80921,-12.00697 7.09142,-1.91969 11.35264,-2.4207 18.72745,-2.20188 23.54063,0.69849 53.64812,7.55665 83.945,19.12177 12.34865,4.7138 34.55839,14.42569 34.81575,15.22424 0.16444,0.51026 -27.9375,65.46627 -31.33413,72.42701 -1.13876,2.33367 -1.37807,2.29378 -11.81756,-1.97006 -16.02554,-6.54536 -44.458,-21.35511 -58.4553,-30.44786 -35.82443,-23.27184 -55.62618,-46.31289 -51.69042,-60.14625 z"
         id="path206"
         inkscape:connector-curvature="0" />
      <path
         style="fill:#ffffff;fill-opacity:1;stroke-width:1.80000567;stroke:#4d4d4d;stroke-opacity:1"
         d="m 413.88471,242.58571 c 1.63296,-5.7395 5.40597,-8.98592 13.46379,-11.58471 24.10734,-7.77503 76.20676,2.95754 129.26146,26.62807 5.39919,2.40887 10.01515,4.62895 10.2577,4.93352 0.32393,0.40678 -27.81035,66.0296 -31.64218,73.80491 -1.42061,2.88262 -49.48418,-20.42549 -70.1479,-34.01776 -21.90312,-14.40753 -39.69985,-30.26312 -46.48452,-41.41433 -4.18946,-6.88576 -5.98218,-13.87244 -4.70835,-18.3497 z"
         id="path204"
         inkscape:connector-curvature="0" />
      <path
         style="fill:#ffffff;fill-opacity:1;stroke-width:1.80000567;stroke:#4d4d4d;stroke-opacity:1"
         d="m 413.88471,242.58571 c 1.86303,-6.54814 5.23011,-9.14987 15.33476,-11.84913 11.21083,-2.99474 21.11973,-2.9951 40.97495,-0.001 16.89465,2.54726 33.61648,6.81589 52.31605,13.35487 13.21652,4.62164 34.17134,13.30079 40.64353,16.83392 l 4.10265,2.23962 -16.07646,36.68542 c -8.84206,20.17698 -16.18637,36.902 -16.3207,37.1667 -0.44318,0.87338 -24.99098,-9.99008 -39.82876,-17.62596 -52.12494,-26.82473 -86.19189,-59.0688 -81.14602,-76.80398 z"
         id="path202"
         inkscape:connector-curvature="0" />
      <path
         style="fill:#ffffff;fill-opacity:1;stroke-width:1.80000567;stroke:#4d4d4d;stroke-opacity:1"
         d="m 413.54428,244.2697 c 0.18366,-1.85272 1.44217,-4.85867 2.7967,-6.6799 2.18339,-2.93568 3.48857,-3.64192 11.50485,-6.22538 7.38977,-2.38156 10.67921,-2.89778 18.00129,-2.82503 18.91387,0.18792 45.41116,5.23356 69.8464,13.30021 13.58078,4.48334 39.85011,15.01893 46.81212,18.77449 l 4.70013,2.53542 -13.97128,31.81957 c -7.6842,17.50077 -14.97468,34.20199 -16.20106,37.11383 l -2.22977,5.29427 -12.63662,-5.33314 C 459.93176,305.77832 411.33944,266.51253 413.54428,244.2697 Z"
         id="path200"
         inkscape:connector-curvature="0" />
      <path
         style="fill:#ffffff;fill-opacity:1;stroke-width:1.80000567;stroke:#4d4d4d;stroke-opacity:1"
         d="m 413.72938,243.79371 c 1.97868,-12.95826 21.96076,-17.85378 54.286,-13.2998 27.18671,3.83006 62.55269,14.91193 90.26559,28.28458 l 9.00485,4.34522 -14.33571,32.46235 c -7.88464,17.85429 -15.21788,34.55195 -16.29609,37.10591 l -1.96038,4.64356 -12.5923,-5.34548 c -15.81714,-6.71444 -46.4827,-22.84933 -58.43296,-30.74489 -32.91014,-21.7438 -52.03228,-43.74254 -49.939,-57.45145 z"
         id="path198"
         inkscape:connector-curvature="0" />
      <path
         style="fill:#ffffff;fill-opacity:1;stroke-width:1.80000567;stroke:#4d4d4d;stroke-opacity:1"
         d="m 413.52656,246.48571 c -0.42761,-6.42749 4.86217,-12.61351 13.00074,-15.20344 24.47376,-7.78827 78.79222,3.36681 130.1962,26.73767 l 10.52964,4.78731 -4.16324,9.3851 c -2.28978,5.16181 -9.64341,21.88585 -16.3414,37.16454 l -12.17817,27.77943 -10.08982,-4.19237 C 509.2108,326.59929 483.70902,313.508 470.00806,304.98061 452.78217,294.25933 440.5478,284.8111 430.65228,274.58735 419.23434,262.7907 414.04478,254.27512 413.52656,246.48571 Z"
         id="path196"
         inkscape:connector-curvature="0" />
      <path
         style="fill:#ffffff;fill-opacity:1;stroke-width:1.80000567;stroke:#4d4d4d;stroke-opacity:1"
         d="m 414.00899,244.03594 c 0.98903,-8.60606 9.48141,-13.61126 25.1614,-14.82952 27.7549,-2.15644 69.50973,7.85604 113.92745,27.31889 l 14.06522,6.16307 -16.11956,36.6893 c -8.86575,20.17912 -16.50346,36.81303 -16.97269,36.96425 -1.57861,0.50875 -29.45079,-12.1681 -44.81602,-20.38327 -25.95975,-13.87962 -46.54323,-28.53155 -59.97075,-42.68894 -11.86236,-12.50716 -16.23548,-20.87655 -15.27505,-29.23378 z"
         id="path194"
         inkscape:connector-curvature="0" />
    </g>
    <g
       style="stroke:#4d4d4d;stroke-width:1.79999995;fill:#ffffff;stroke-opacity:1"
       id="g210"
       transform="matrix(0.14375,-0.44604491,0.44604491,0.14375,-181.97813,645.48784)">
      <path
         style="fill:#ffffff;fill-opacity:1;stroke-width:1.80000567;stroke:#4d4d4d;stroke-opacity:1"
         d="m 844.09748,582.09199 c -2.74947,-10.31823 -7.72603,-31.75626 -8.22581,-35.43514 l -0.44443,-3.27139 30.72043,-9.90049 30.72043,-9.90049 4.98432,13.1028 c 14.42848,37.92963 25.65376,96.58907 24.61905,128.6506 -0.62683,19.42261 -5.18302,32.13927 -12.3416,34.44632 -4.36515,1.40679 -8.22693,0.22357 -14.14195,-4.33299 -10.66966,-8.21924 -24.45535,-30.01831 -36.31463,-57.42369 -4.69853,-10.85774 -16.70821,-45.17397 -19.57581,-55.93553 z"
         id="path226"
         inkscape:connector-curvature="0" />
      <path
         style="fill:#ffffff;fill-opacity:1;stroke-width:1.80000567;stroke:#4d4d4d;stroke-opacity:1"
         d="m 844.73469,583.98794 c -2.61349,-9.42351 -7.86844,-31.73754 -8.68152,-36.86426 l -0.59449,-3.74836 30.66788,-9.88355 30.66788,-9.88355 5.31545,14.3094 c 5.96894,16.06861 14.06722,45.56824 17.8201,64.91333 10.96751,56.53456 7.54501,96.32214 -8.37591,97.37225 -12.11594,0.79914 -30.188,-22.31434 -46.4198,-59.36916 -6.02364,-13.75108 -16.69482,-43.4877 -20.39959,-56.8461 z"
         id="path224"
         inkscape:connector-curvature="0" />
      <path
         style="fill:#ffffff;fill-opacity:1;stroke-width:1.80000567;stroke:#4d4d4d;stroke-opacity:1"
         d="m 844.4088,581.46633 c -2.89165,-10.33633 -6.0431,-22.7953 -7.00323,-27.6866 -0.96013,-4.8913 -1.8457,-9.21563 -1.96793,-9.60963 -0.12224,-0.394 13.69777,-5.20247 30.71112,-10.68548 l 30.93337,-9.96911 3.75884,11.13377 c 17.28296,51.19267 25.52821,91.89205 25.42522,125.5015 -0.17393,56.76169 -26.13759,52.74481 -56.1683,-8.68988 -5.58381,-11.42297 -8.40638,-18.39867 -17.67584,-43.68412 -1.51564,-4.13442 -5.12161,-15.97411 -8.01325,-26.31045 z"
         id="path222"
         inkscape:connector-curvature="0" />
      <path
         style="fill:#ffffff;fill-opacity:1;stroke-width:1.80000567;stroke:#4d4d4d;stroke-opacity:1"
         d="m 839.90201,564.53236 c -0.97924,-4.30728 -2.40024,-10.82303 -3.15777,-14.47944 l -1.37734,-6.64802 30.85762,-9.9447 30.85761,-9.94469 8.11196,25.17075 c 8.72694,27.07902 12.57931,42.17794 16.36155,64.1273 7.59663,44.08532 5.51188,79.10402 -5.10341,85.7249 -12.88967,8.03943 -33.57902,-16.40557 -53.81573,-63.58466 -4.78856,-11.16387 -19.91445,-58.01721 -22.73449,-70.42144 z"
         id="path220"
         inkscape:connector-curvature="0" />
      <path
         style="fill:#ffffff;fill-opacity:1;stroke-width:1.80000567;stroke:#4d4d4d;stroke-opacity:1"
         d="m 840.30974,565.97693 c -1.03304,-4.57887 -2.55841,-11.53377 -3.3897,-15.45534 l -1.51145,-7.13012 30.94749,-9.97366 30.94749,-9.97367 9.71403,31.80357 c 9.92681,32.50018 13.3706,47.11583 16.50867,70.06391 5.72536,41.86831 1.93949,70.81928 -9.75372,74.58773 -3.52369,1.13561 -9.91029,-1.35573 -15.09785,-5.88952 -9.13919,-7.98739 -19.32216,-23.53724 -30.54445,-46.64274 -5.69708,-11.72966 -24.5439,-66.86692 -27.82051,-81.39016 z"
         id="path218"
         inkscape:connector-curvature="0" />
      <path
         style="fill:#ffffff;fill-opacity:1;stroke-width:1.80000567;stroke:#4d4d4d;stroke-opacity:1"
         d="m 841.81607,571.79539 c -0.3849,-1.89846 -1.9741,-9.06919 -3.53155,-15.93496 l -2.83173,-12.48321 30.32064,-9.77164 30.32064,-9.77164 1.40933,2.25958 c 2.51558,4.03325 18.76467,59.43794 21.5134,73.35445 10.26223,51.95656 8.98456,92.13875 -3.15483,99.21837 -8.93864,5.21297 -22.7254,-6.38267 -36.94181,-31.07065 -10.94899,-19.01385 -15.92015,-30.74579 -26.46453,-62.45636 -5.46685,-16.44071 -10.25465,-31.44548 -10.63956,-33.34394 z"
         id="path216"
         inkscape:connector-curvature="0" />
      <path
         style="fill:#ffffff;fill-opacity:1;stroke-width:1.80000567;stroke:#4d4d4d;stroke-opacity:1"
         d="m 841.13155,568.33871 c -1.15383,-4.82887 -2.9124,-12.41781 -3.90795,-16.8643 l -1.81008,-8.08453 30.2474,-9.74804 30.2474,-9.74804 1.26408,1.95658 c 2.0945,3.24194 14.51924,42.75434 18.05678,57.42307 15.12509,62.71763 13.88044,114.48066 -2.8027,116.56001 -13.07296,1.6294 -33.07769,-25.28597 -51.04457,-68.67794 -5.12001,-12.36538 -17.00322,-49.22719 -20.2504,-62.81679 z"
         id="path214"
         inkscape:connector-curvature="0" />
      <path
         style="fill:#ffffff;fill-opacity:1;stroke-width:1.80000567;stroke:#4d4d4d;stroke-opacity:1"
         d="m 840.75589,566.8838 c -1.44814,-6.17867 -3.14517,-13.90564 -3.77119,-17.17104 l -1.13821,-5.93709 30.0675,-9.96738 30.0675,-9.96738 2.43799,5.23194 c 3.63195,7.7942 16.88937,53.18964 20.0384,68.61459 10.75881,52.70002 9.83117,91.49469 -2.40128,100.4237 -10.9676,8.00573 -29.4836,-12.3026 -48.86385,-53.59387 -6.42842,-13.69627 -22.54146,-61.01322 -26.43686,-77.63347 z"
         id="path212"
         inkscape:connector-curvature="0" />
    </g>
  </g>
  <metadata
     id="metadata17">
    <rdf:RDF>
      <cc:Work>
        <dc:format>image/svg+xml</dc:format>
        <dc:type
           rdf:resource="http://purl.org/dc/dcmitype/StillImage" />
        <cc:license
           rdf:resource="http://creativecommons.org/licenses/publicdomain/" />
        <dc:publisher>
          <cc:Agent
             rdf:about="http://openclipart.org/">
            <dc:title>Openclipart</dc:title>
          </cc:Agent>
        </dc:publisher>
        <dc:title></dc:title>
      </cc:Work>
      <cc:License
         rdf:about="http://creativecommons.org/licenses/publicdomain/">
        <cc:permits
           rdf:resource="http://creativecommons.org/ns#Reproduction" />
        <cc:permits
           rdf:resource="http://creativecommons.org/ns#Distribution" />
        <cc:permits
           rdf:resource="http://creativecommons.org/ns#DerivativeWorks" />
      </cc:License>
    </rdf:RDF>
  </metadata>
</svg>
